HIERARCHY
ROOT Hips
{
	OFFSET 0.000000 0.000000 0.000000
	CHANNELS 6 Xposition Yposition Zposition Zrotation Yrotation Xrotation 
	JOINT LHipJoint
	{
		OFFSET 0.000000 0.000000 0.000000
		CHANNELS 3 Zrotation Yrotation Xrotation
		JOINT LeftUpLeg
		{
			OFFSET 1.363060 -1.794630 0.839290
			CHANNELS 3 Zrotation Yrotation Xrotation
			JOINT LeftLeg
			{
				OFFSET 2.448110 -6.726130 0.000000
				CHANNELS 3 Zrotation Yrotation Xrotation
				JOINT LeftFoot
				{
					OFFSET 2.562200 -7.039590 0.000000
					CHANNELS 3 Zrotation Yrotation Xrotation
					JOINT LeftToeBase
					{
						OFFSET 0.157640 -0.433110 2.322550
						CHANNELS 3 Zrotation Yrotation Xrotation
						End Site
						{
							OFFSET 0.000000 0.000000 0.000000
						}
					}
				}
			}
		}
	}
	JOINT RHipJoint
	{
		OFFSET 0.000000 0.000000 0.000000
		CHANNELS 3 Zrotation Yrotation Xrotation
		JOINT RightUpLeg
		{
			OFFSET -1.305520 -1.794630 0.839290
			CHANNELS 3 Zrotation Yrotation Xrotation
			JOINT RightLeg
			{
				OFFSET -2.542530 -6.985550 0.000000
				CHANNELS 3 Zrotation Yrotation Xrotation
				JOINT RightFoot
				{
					OFFSET -2.568260 -7.056230 0.000000
					CHANNELS 3 Zrotation Yrotation Xrotation
					JOINT RightToeBase
					{
						OFFSET -0.164730 -0.452590 2.363150
						CHANNELS 3 Zrotation Yrotation Xrotation
						End Site
						{
							OFFSET 0.000000 0.000000 0.000000
						}
					}
				}
			}
		}
	}
	JOINT LowerBack
	{
		OFFSET 0.000000 0.000000 0.000000
		CHANNELS 3 Zrotation Yrotation Xrotation
		JOINT Spine
		{
			OFFSET 0.028270 2.035590 -0.193380
			CHANNELS 3 Zrotation Yrotation Xrotation
			JOINT Spine1
			{
				OFFSET 0.056720 2.048850 -0.042750
				CHANNELS 3 Zrotation Yrotation Xrotation
				JOINT Neck
				{
					OFFSET 0.000000 0.000000 0.000000
					CHANNELS 3 Zrotation Yrotation Xrotation
					JOINT Neck1
					{
						OFFSET -0.054170 1.746240 0.172020
						CHANNELS 3 Zrotation Yrotation Xrotation
						JOINT Head
						{
							OFFSET 0.104070 1.761360 -0.123970
							CHANNELS 3 Zrotation Yrotation Xrotation
							End Site
							{
								OFFSET 0.000000 0.000000 0.000000
							}
						}
					}
				}
				JOINT LeftShoulder
				{
					OFFSET 0.000000 0.000000 0.000000
					CHANNELS 3 Zrotation Yrotation Xrotation
					JOINT LeftArm
					{
						OFFSET 3.362410 1.200890 -0.311210
						CHANNELS 3 Zrotation Yrotation Xrotation
						JOINT LeftForeArm
						{
							OFFSET 4.983000 -0.000000 -0.000000
							CHANNELS 3 Zrotation Yrotation Xrotation
							JOINT LeftHand
							{
								OFFSET 3.483560 -0.000000 -0.000000
								CHANNELS 3 Zrotation Yrotation Xrotation
								JOINT LeftFingerBase
								{
									OFFSET 0.000000 0.000000 0.000000
									CHANNELS 3 Zrotation Yrotation Xrotation
									JOINT LeftHandIndex1
									{
										OFFSET 0.715260 -0.000000 -0.000000
										CHANNELS 3 Zrotation Yrotation Xrotation
										End Site
										{
											OFFSET 0.000000 0.000000 0.000000
										}
									}
								}
								JOINT LThumb
								{
									OFFSET 0.000000 0.000000 0.000000
									CHANNELS 3 Zrotation Yrotation Xrotation
									End Site
									{
										OFFSET 0.000000 0.000000 0.000000
									}
								}
							}
						}
					}
				}
				JOINT RightShoulder
				{
					OFFSET 0.000000 0.000000 0.000000
					CHANNELS 3 Zrotation Yrotation Xrotation
					JOINT RightArm
					{
						OFFSET -3.136600 1.374050 -0.404650
						CHANNELS 3 Zrotation Yrotation Xrotation
						JOINT RightForeArm
						{
							OFFSET -5.241900 -0.000000 -0.000000
							CHANNELS 3 Zrotation Yrotation Xrotation
							JOINT RightHand
							{
								OFFSET -3.444170 -0.000000 -0.000000
								CHANNELS 3 Zrotation Yrotation Xrotation
								JOINT RightFingerBase
								{
									OFFSET 0.000000 0.000000 0.000000
									CHANNELS 3 Zrotation Yrotation Xrotation
									JOINT RightHandIndex1
									{
										OFFSET -0.622530 -0.000000 -0.000000
										CHANNELS 3 Zrotation Yrotation Xrotation
										End Site
										{
											OFFSET 0.000000 0.000000 0.000000
										}
									}
								}
								JOINT RThumb
								{
									OFFSET 0.000000 0.000000 0.000000
									CHANNELS 3 Zrotation Yrotation Xrotation
									End Site
									{
										OFFSET 0.000000 0.000000 0.000000
									}
								}
							}
						}
					}
				}
			}
		}
	}
}
MOTION
Frames: 6
Frame Time: 0.008333
15.919780 16.146112 1.529175 -125.056204 -84.638725 163.661800 -8.610256 -0.110810 3.478709 -10.062753 -3.749924 -75.832384 -2.581111 2.532985 35.326488 0.576251 1.575887 -1.942699 0.696100 -0.000000 -38.303700 8.276309 -0.589859 3.085099 18.773211 5.177341 -72.975529 4.133442 -4.003067 36.588723 0.475539 2.725533 -0.835403 -0.181000 0.000000 -71.420500 -0.286601 -1.133031 -4.598206 -0.647502 -1.309828 -3.207931 -5.214578 -1.413190 3.446043 9.607436 -14.648349 -15.553626 -1.195335 0.054750 -2.499493 0.000000 0.000000 0.000000 6.190312 23.104750 1.204480 -43.503207 -9.623933 -45.140979 -179.965761 -73.006031 179.720910 28.776047 6.683701 1.639672 -0.657104 0.433592 0.000000 0.000000 0.000000 0.000000 0.000000 0.000000 0.000000 3.062398 -9.818176 1.828082 47.164891 -6.130117 -48.621626 179.951218 80.456532 179.897431 -15.487258 9.747965 -1.433727 0.286359 -0.582785 0.000000 0.000000 0.000000 0.000000 0.000000 0.000000 0.000000 
15.812135 15.859167 1.507210 -125.313138 -84.789297 163.783929 -8.463301 -0.420262 3.389525 -9.021120 -4.959859 -78.085900 -2.001815 3.024140 41.845018 1.086159 2.957655 -6.469172 0.505300 0.000000 -33.635100 8.250826 -0.158276 2.915579 17.549558 6.081336 -75.445348 3.304711 -4.600270 43.166860 -0.030545 1.473537 -4.571527 -0.288400 0.000000 -67.706701 -0.387798 -1.248290 -4.238497 -0.712262 -1.408773 -3.219800 -5.393120 -1.503535 3.016944 9.727371 -13.904350 -15.261321 -1.388060 0.032738 -2.433367 0.000000 0.000000 0.000000 6.156294 21.722771 1.347564 -43.617746 -9.011071 -44.401975 -179.920664 -72.902116 179.725496 28.720409 6.742127 1.654267 -0.655635 0.424093 0.000000 0.000000 0.000000 0.000000 0.000000 0.000000 0.000000 3.530129 -8.967386 1.908202 47.919926 -6.057662 -47.830951 179.936942 80.299662 179.898522 -15.565635 9.801470 -1.447757 0.287444 -0.578081 0.000000 0.000000 0.000000 0.000000 0.000000 0.000000 0.000000 
15.707023 15.577015 1.482713 -125.227303 -85.082142 163.519966 -8.325256 -0.756295 3.264263 -8.142389 -6.151878 -80.205097 -1.447622 3.464126 48.178632 1.559272 4.240470 -10.650876 0.128900 0.000000 -29.536300 8.245639 0.341593 2.731115 16.227204 6.809626 -77.788841 2.486115 -5.093916 49.620022 -0.561561 0.090241 -8.288476 -0.248500 0.000001 -63.915900 -0.512102 -1.389594 -3.828046 -0.785346 -1.530844 -3.223868 -5.590923 -1.616467 2.558245 9.837227 -13.120652 -14.921791 -1.587933 0.009823 -2.355856 0.000000 0.000000 0.000000 6.074686 20.260890 1.491038 -43.773521 -8.521225 -43.556381 -179.880703 -73.061254 179.730835 28.638686 6.668422 1.631852 -0.650659 0.417181 0.000000 0.000000 0.000000 0.000000 0.000000 0.000000 0.000000 4.021209 -8.107690 1.989658 48.917182 -5.988303 -47.064745 179.930428 80.181110 179.898539 -15.745871 9.854417 -1.471391 0.288666 -0.573889 0.000000 0.000000 0.000000 0.000000 0.000000 0.000000 0.000000 
15.603653 15.305005 1.456269 -124.427957 -85.493134 162.526409 -8.199155 -1.099939 3.110286 -7.435647 -7.293300 -82.152780 -0.931989 3.850020 54.138603 1.970084 5.393371 -14.372983 -0.365201 0.000000 -26.353801 8.265718 0.867908 2.545366 14.887885 7.382683 -79.936963 1.713985 -5.496574 55.735154 -1.092827 -1.401381 -11.841487 -0.056300 0.000000 -60.353300 -0.627887 -1.548074 -3.384864 -0.859250 -1.669670 -3.222839 -5.806423 -1.745800 2.079200 9.937729 -12.314791 -14.539866 -1.791740 -0.013515 -2.268417 0.000000 0.000000 0.000000 5.929353 18.755887 1.631176 -44.010596 -8.206892 -42.572009 -179.849965 -73.551801 179.736844 28.541279 6.473359 1.576318 -0.641534 0.412687 0.000000 0.000000 0.000000 0.000000 0.000000 0.000000 0.000000 4.544612 -7.266034 2.066357 50.160901 -5.871141 -46.300990 179.933915 80.167482 179.897485 -16.018900 9.910364 -1.504335 0.289291 -0.570132 0.000000 0.000000 0.000000 0.000000 0.000000 0.000000 0.000000 
15.501299 15.047996 1.428729 -122.240349 -85.990351 160.157143 -8.080750 -1.439329 2.938309 -6.885484 -8.356387 -83.915732 -0.460186 4.183630 59.601161 2.305496 6.383183 -17.581409 -0.908600 0.000000 -24.298800 8.316244 1.378268 2.372145 13.601229 7.836661 -81.853566 1.004729 -5.829189 61.364492 -1.607750 -2.976892 -15.122737 0.278101 0.000000 -57.313500 -0.696825 -1.714973 -2.933071 -0.924596 -1.819447 -3.220065 -6.034907 -1.886047 1.592228 10.026928 -11.505276 -14.123949 -1.995419 -0.036718 -2.173184 0.000000 0.000000 0.000000 5.708387 17.244863 1.765572 -44.370228 -8.106021 -41.427133 -179.832919 -74.439758 179.743449 28.432256 6.186220 1.495957 -0.627589 0.409996 0.000000 0.000000 0.000000 0.000000 0.000000 0.000000 0.000000 5.104945 -6.469027 2.132071 51.636324 -5.655080 -45.512033 179.949222 80.337160 179.895435 -16.366038 9.972240 -1.545302 0.288401 -0.566648 0.000000 0.000000 0.000000 0.000000 0.000000 0.000000 0.000000 
15.399020 14.810148 1.400901 -117.419066 -86.546900 155.187037 -7.959826 -1.777895 2.757021 -6.471459 -9.325803 -85.481524 -0.034536 4.465540 64.496260 2.562616 7.180247 -20.276373 -1.442500 -0.000000 -23.381200 8.403493 1.829961 2.221140 12.415793 8.196212 -83.526648 0.362284 -6.113324 66.420492 -2.096172 -4.604105 -18.068499 0.733900 0.000000 -54.971900 -0.684655 -1.889043 -2.493377 -0.972752 -1.981442 -3.217607 -6.269090 -2.038777 1.111105 10.102005 -10.707768 -13.685137 -2.194950 -0.059259 -2.072808 0.000000 0.000000 0.000000 5.404641 15.759352 1.894618 -44.883648 -8.234993 -40.115944 -179.833735 -75.787306 179.750608 28.307846 5.855176 1.403657 -0.608233 0.408019 0.000000 0.000000 0.000000 0.000000 0.000000 0.000000 0.000000 5.706022 -5.740116 2.181013 53.308012 -5.297155 -44.670656 179.977015 80.775084 179.892517 -16.764269 10.038876 -1.591997 0.285027 -0.563065 0.000000 0.000000 0.000000 0.000000 0.000000 0.000000 0.000000 
